<svg width="42" height="51" viewBox="0 0 42 51" fill="none" xmlns="http://www.w3.org/2000/svg">
<path d="M16.8793 27.2367H23.528C24.6829 27.2147 24.6807 25.5033 23.528 25.4814H16.8793C15.6697 25.4814 14.6858 24.4975 14.6858 23.2879C14.6858 18.6927 18.4242 14.9545 23.0191 14.9545C25.2389 14.9545 27.3317 15.8223 28.9072 17.4001C29.5185 18.0114 30.0204 18.6995 30.4104 19.4534C28.3527 20.6783 26.9657 22.9178 26.9657 25.4816C26.9657 29.3515 30.1146 32.4984 33.9824 32.4984C37.8523 32.4984 40.9991 29.3494 40.9991 25.4816C41.0736 20.8864 36.3908 17.389 32.0122 18.7499C30.9363 16.5652 28.9532 14.7682 26.6961 13.9005C28.6946 12.6624 30.0334 10.4558 30.0334 7.93786C29.6521 -1.3643 16.3859 -1.37552 15.9977 7.93786C15.9977 10.4579 17.3388 12.6667 19.3395 13.905C15.5923 15.3776 12.9275 19.0239 12.9275 23.2885C12.9275 25.4645 14.6981 27.2351 16.8741 27.2351L16.8793 27.2367ZM33.9847 20.2199C36.886 20.2199 39.2482 22.58 39.2482 25.4835C39.0006 32.4497 28.9689 32.4475 28.7232 25.4835C28.7232 22.5822 31.0832 20.2199 33.9867 20.2199H33.9847ZM17.7578 7.93954C17.7578 5.03821 20.1179 2.67598 23.0214 2.67598C29.9876 2.92361 29.9854 12.9554 23.0214 13.2011C20.12 13.2011 17.7578 10.841 17.7578 7.93752V7.93954ZM31.3902 26.1035C30.5816 25.2883 31.8175 24.0546 32.6304 24.8632L33.3251 25.5579L35.3367 23.5463C36.1519 22.7377 37.3834 23.9736 36.577 24.7865L33.9452 27.4183C33.6034 27.7602 33.0467 27.7602 32.7049 27.4183L31.3902 26.1035ZM37.4229 37.4521L27.6804 40.2789C27.0362 40.8837 26.175 41.2606 25.2239 41.2606H17.0897C16.6055 41.2606 16.2132 40.8684 16.2132 40.3841C16.2132 39.8998 16.6055 39.5076 17.0897 39.5076H25.2239C26.2429 39.5076 27.0712 38.6792 27.0712 37.6603C27.0712 36.6413 26.2429 35.813 25.2239 35.813H19.5418C18.7529 35.813 17.986 35.5894 17.3176 35.1665C15.7136 34.2068 13.4653 32.3375 11.4711 32.4997H1.52886C0.365276 32.4778 0.387154 30.7664 1.52886 30.7445H11.4711C13.8903 30.5779 16.3227 32.4734 18.2578 33.6852C18.6435 33.9285 19.0862 34.0577 19.542 34.0577H25.2241C27.2095 34.0577 28.8245 35.6727 28.8245 37.6581C28.8245 37.8203 28.7982 37.9759 28.7763 38.1314L36.9323 35.7648C40.6839 34.7436 42.6583 39.9874 39.1806 41.6943L23.8917 48.9343C22.3293 49.675 20.6441 50.0432 18.9656 50.0432C16.9562 50.0432 14.9533 49.5172 13.1651 48.4742L7.09532 44.933C6.85427 44.7927 6.58036 44.7182 6.29985 44.7182H1.52497C1.04069 44.7182 0.648438 44.326 0.648438 43.8417C0.648438 43.3574 1.04069 42.9652 1.52497 42.9652H6.29985C6.88933 42.9652 7.47 43.1229 7.97841 43.4188L14.0482 46.9599C16.829 48.5815 20.228 48.7305 23.14 47.35L38.4289 40.11C40.0023 39.3562 39.0731 36.9786 37.4209 37.4497L37.4229 37.4521Z" fill="#00B4FF"/>
<path d="M16.8793 27.2367H23.528C24.6829 27.2147 24.6807 25.5033 23.528 25.4814H16.8793C15.6697 25.4814 14.6858 24.4975 14.6858 23.2879C14.6858 18.6927 18.4242 14.9545 23.0191 14.9545C25.2389 14.9545 27.3317 15.8223 28.9072 17.4001C29.5185 18.0114 30.0204 18.6995 30.4104 19.4534C28.3527 20.6783 26.9657 22.9178 26.9657 25.4816C26.9657 29.3515 30.1146 32.4984 33.9824 32.4984C37.8523 32.4984 40.9991 29.3494 40.9991 25.4816C41.0736 20.8864 36.3908 17.389 32.0122 18.7499C30.9363 16.5652 28.9532 14.7682 26.6961 13.9005C28.6946 12.6624 30.0334 10.4558 30.0334 7.93786C29.6521 -1.3643 16.3859 -1.37552 15.9977 7.93786C15.9977 10.4579 17.3388 12.6667 19.3395 13.905C15.5923 15.3776 12.9275 19.0239 12.9275 23.2885C12.9275 25.4645 14.6981 27.2351 16.8741 27.2351L16.8793 27.2367ZM33.9847 20.2199C36.886 20.2199 39.2482 22.58 39.2482 25.4835C39.0006 32.4497 28.9689 32.4475 28.7232 25.4835C28.7232 22.5822 31.0832 20.2199 33.9867 20.2199H33.9847ZM17.7578 7.93954C17.7578 5.03821 20.1179 2.67598 23.0214 2.67598C29.9876 2.92361 29.9854 12.9554 23.0214 13.2011C20.12 13.2011 17.7578 10.841 17.7578 7.93752V7.93954ZM31.3902 26.1035C30.5816 25.2883 31.8175 24.0546 32.6304 24.8632L33.3251 25.5579L35.3367 23.5463C36.1519 22.7377 37.3834 23.9736 36.577 24.7865L33.9452 27.4183C33.6034 27.7602 33.0467 27.7602 32.7049 27.4183L31.3902 26.1035ZM37.4229 37.4521L27.6804 40.2789C27.0362 40.8837 26.175 41.2606 25.2239 41.2606H17.0897C16.6055 41.2606 16.2132 40.8684 16.2132 40.3841C16.2132 39.8998 16.6055 39.5076 17.0897 39.5076H25.2239C26.2429 39.5076 27.0712 38.6792 27.0712 37.6603C27.0712 36.6413 26.2429 35.813 25.2239 35.813H19.5418C18.7529 35.813 17.986 35.5894 17.3176 35.1665C15.7136 34.2068 13.4653 32.3375 11.4711 32.4997H1.52886C0.365276 32.4778 0.387154 30.7664 1.52886 30.7445H11.4711C13.8903 30.5779 16.3227 32.4734 18.2578 33.6852C18.6435 33.9285 19.0862 34.0577 19.542 34.0577H25.2241C27.2095 34.0577 28.8245 35.6727 28.8245 37.6581C28.8245 37.8203 28.7982 37.9759 28.7763 38.1314L36.9323 35.7648C40.6839 34.7436 42.6583 39.9874 39.1806 41.6943L23.8917 48.9343C22.3293 49.675 20.6441 50.0432 18.9656 50.0432C16.9562 50.0432 14.9533 49.5172 13.1651 48.4742L7.09532 44.933C6.85427 44.7927 6.58036 44.7182 6.29985 44.7182H1.52497C1.04069 44.7182 0.648438 44.326 0.648438 43.8417C0.648438 43.3574 1.04069 42.9652 1.52497 42.9652H6.29985C6.88933 42.9652 7.47 43.1229 7.97841 43.4188L14.0482 46.9599C16.829 48.5815 20.228 48.7305 23.14 47.35L38.4289 40.11C40.0023 39.3562 39.0731 36.9786 37.4209 37.4497L37.4229 37.4521Z" fill="url(#paint0_linear_21_1159)"/>
<path d="M16.8793 27.2367H23.528C24.6829 27.2147 24.6807 25.5033 23.528 25.4814H16.8793C15.6697 25.4814 14.6858 24.4975 14.6858 23.2879C14.6858 18.6927 18.4242 14.9545 23.0191 14.9545C25.2389 14.9545 27.3317 15.8223 28.9072 17.4001C29.5185 18.0114 30.0204 18.6995 30.4104 19.4534C28.3527 20.6783 26.9657 22.9178 26.9657 25.4816C26.9657 29.3515 30.1146 32.4984 33.9824 32.4984C37.8523 32.4984 40.9991 29.3494 40.9991 25.4816C41.0736 20.8864 36.3908 17.389 32.0122 18.7499C30.9363 16.5652 28.9532 14.7682 26.6961 13.9005C28.6946 12.6624 30.0334 10.4558 30.0334 7.93786C29.6521 -1.3643 16.3859 -1.37552 15.9977 7.93786C15.9977 10.4579 17.3388 12.6667 19.3395 13.905C15.5923 15.3776 12.9275 19.0239 12.9275 23.2885C12.9275 25.4645 14.6981 27.2351 16.8741 27.2351L16.8793 27.2367ZM33.9847 20.2199C36.886 20.2199 39.2482 22.58 39.2482 25.4835C39.0006 32.4497 28.9689 32.4475 28.7232 25.4835C28.7232 22.5822 31.0832 20.2199 33.9867 20.2199H33.9847ZM17.7578 7.93954C17.7578 5.03821 20.1179 2.67598 23.0214 2.67598C29.9876 2.92361 29.9854 12.9554 23.0214 13.2011C20.12 13.2011 17.7578 10.841 17.7578 7.93752V7.93954ZM31.3902 26.1035C30.5816 25.2883 31.8175 24.0546 32.6304 24.8632L33.3251 25.5579L35.3367 23.5463C36.1519 22.7377 37.3834 23.9736 36.577 24.7865L33.9452 27.4183C33.6034 27.7602 33.0467 27.7602 32.7049 27.4183L31.3902 26.1035ZM37.4229 37.4521L27.6804 40.2789C27.0362 40.8837 26.175 41.2606 25.2239 41.2606H17.0897C16.6055 41.2606 16.2132 40.8684 16.2132 40.3841C16.2132 39.8998 16.6055 39.5076 17.0897 39.5076H25.2239C26.2429 39.5076 27.0712 38.6792 27.0712 37.6603C27.0712 36.6413 26.2429 35.813 25.2239 35.813H19.5418C18.7529 35.813 17.986 35.5894 17.3176 35.1665C15.7136 34.2068 13.4653 32.3375 11.4711 32.4997H1.52886C0.365276 32.4778 0.387154 30.7664 1.52886 30.7445H11.4711C13.8903 30.5779 16.3227 32.4734 18.2578 33.6852C18.6435 33.9285 19.0862 34.0577 19.542 34.0577H25.2241C27.2095 34.0577 28.8245 35.6727 28.8245 37.6581C28.8245 37.8203 28.7982 37.9759 28.7763 38.1314L36.9323 35.7648C40.6839 34.7436 42.6583 39.9874 39.1806 41.6943L23.8917 48.9343C22.3293 49.675 20.6441 50.0432 18.9656 50.0432C16.9562 50.0432 14.9533 49.5172 13.1651 48.4742L7.09532 44.933C6.85427 44.7927 6.58036 44.7182 6.29985 44.7182H1.52497C1.04069 44.7182 0.648438 44.326 0.648438 43.8417C0.648438 43.3574 1.04069 42.9652 1.52497 42.9652H6.29985C6.88933 42.9652 7.47 43.1229 7.97841 43.4188L14.0482 46.9599C16.829 48.5815 20.228 48.7305 23.14 47.35L38.4289 40.11C40.0023 39.3562 39.0731 36.9786 37.4209 37.4497L37.4229 37.4521Z" stroke="#FD842F" stroke-width="0.7"/>
<defs>
<linearGradient id="paint0_linear_21_1159" x1="0.648437" y1="8.82034" x2="44.8439" y2="13.4647" gradientUnits="userSpaceOnUse">
<stop stop-color="#FF8E37"/>
<stop offset="1" stop-color="#F05306"/>
</linearGradient>
</defs>
</svg>
