<svg width="46" height="51" viewBox="0 0 46 51" fill="none" xmlns="http://www.w3.org/2000/svg">
<path d="M33.6725 16.7962L21.5322 28.9365L16.7053 24.1097C16.1202 23.5246 15.2426 23.5246 14.6576 24.1097C14.0725 24.6947 14.0725 25.5723 14.6576 26.1574L20.5083 32.0082C20.8008 32.3007 21.1665 32.447 21.5322 32.447C21.8979 32.447 22.2635 32.3007 22.5561 32.0082L35.7202 18.844C36.3053 18.2589 36.3053 17.3813 35.7202 16.7962C35.1352 16.2112 34.2576 16.2112 33.6725 16.7962Z" fill="#00B4FF"/>
<path d="M33.6725 16.7962L21.5322 28.9365L16.7053 24.1097C16.1202 23.5246 15.2426 23.5246 14.6576 24.1097C14.0725 24.6947 14.0725 25.5723 14.6576 26.1574L20.5083 32.0082C20.8008 32.3007 21.1665 32.447 21.5322 32.447C21.8979 32.447 22.2635 32.3007 22.5561 32.0082L35.7202 18.844C36.3053 18.2589 36.3053 17.3813 35.7202 16.7962C35.1352 16.2112 34.2576 16.2112 33.6725 16.7962Z" fill="url(#paint0_linear_21_1160)"/>
<path d="M42.0099 10.8731L25.9204 1.73134C25.1159 1.29254 24.1651 1 22.995 1C21.8248 1 20.9472 1.2194 20.0696 1.73134L3.98006 10.8731C2.1517 11.897 1.05469 13.8716 1.05469 15.9194V26.3776C1.05469 33.3985 4.85767 39.9806 10.9278 43.491L22.2636 49.7806C22.483 49.9269 22.7024 50 22.995 50C23.2875 50 23.5069 49.9269 23.7263 49.7806L35.0621 43.491C41.1323 39.9806 44.9353 33.3985 44.9353 26.3776V15.9925C44.9353 13.8716 43.8383 11.9701 42.0099 10.8731ZM42.0099 26.3776C42.0099 32.3746 38.792 37.9328 33.5995 40.9313L22.995 46.8552L12.3905 40.9313C7.19797 38.006 3.98006 32.3746 3.98006 26.3776V15.9925C3.98006 14.9687 4.56514 13.9448 5.44275 13.4328L21.5323 4.21791C21.898 3.99851 22.4099 3.92537 22.995 3.92537C23.5801 3.92537 24.092 3.99851 24.4577 4.21791L40.5472 13.4328C41.4248 13.9448 42.0099 14.8955 42.0099 15.9925V26.3776Z" fill="#00B4FF"/>
<path d="M42.0099 10.8731L25.9204 1.73134C25.1159 1.29254 24.1651 1 22.995 1C21.8248 1 20.9472 1.2194 20.0696 1.73134L3.98006 10.8731C2.1517 11.897 1.05469 13.8716 1.05469 15.9194V26.3776C1.05469 33.3985 4.85767 39.9806 10.9278 43.491L22.2636 49.7806C22.483 49.9269 22.7024 50 22.995 50C23.2875 50 23.5069 49.9269 23.7263 49.7806L35.0621 43.491C41.1323 39.9806 44.9353 33.3985 44.9353 26.3776V15.9925C44.9353 13.8716 43.8383 11.9701 42.0099 10.8731ZM42.0099 26.3776C42.0099 32.3746 38.792 37.9328 33.5995 40.9313L22.995 46.8552L12.3905 40.9313C7.19797 38.006 3.98006 32.3746 3.98006 26.3776V15.9925C3.98006 14.9687 4.56514 13.9448 5.44275 13.4328L21.5323 4.21791C21.898 3.99851 22.4099 3.92537 22.995 3.92537C23.5801 3.92537 24.092 3.99851 24.4577 4.21791L40.5472 13.4328C41.4248 13.9448 42.0099 14.8955 42.0099 15.9925V26.3776Z" fill="url(#paint1_linear_21_1160)"/>
<path d="M42.0099 10.8731L25.9204 1.73134C25.1159 1.29254 24.1651 1 22.995 1C21.8248 1 20.9472 1.2194 20.0696 1.73134L3.98006 10.8731C2.1517 11.897 1.05469 13.8716 1.05469 15.9194V26.3776C1.05469 33.3985 4.85767 39.9806 10.9278 43.491L22.2636 49.7806C22.483 49.9269 22.7024 50 22.995 50C23.2875 50 23.5069 49.9269 23.7263 49.7806L35.0621 43.491C41.1323 39.9806 44.9353 33.3985 44.9353 26.3776V15.9925C44.9353 13.8716 43.8383 11.9701 42.0099 10.8731ZM42.0099 26.3776C42.0099 32.3746 38.792 37.9328 33.5995 40.9313L22.995 46.8552L12.3905 40.9313C7.19797 38.006 3.98006 32.3746 3.98006 26.3776V15.9925C3.98006 14.9687 4.56514 13.9448 5.44275 13.4328L21.5323 4.21791C21.898 3.99851 22.4099 3.92537 22.995 3.92537C23.5801 3.92537 24.092 3.99851 24.4577 4.21791L40.5472 13.4328C41.4248 13.9448 42.0099 14.8955 42.0099 15.9925V26.3776Z" stroke="#FB7F2B"/>
<defs>
<linearGradient id="paint0_linear_21_1160" x1="14.2187" y1="18.9349" x2="37.798" y2="23.0452" gradientUnits="userSpaceOnUse">
<stop stop-color="#FF8E37"/>
<stop offset="1" stop-color="#F05306"/>
</linearGradient>
<linearGradient id="paint1_linear_21_1160" x1="1.05469" y1="8.84952" x2="49.0175" y2="14.3402" gradientUnits="userSpaceOnUse">
<stop stop-color="#FF8E37"/>
<stop offset="1" stop-color="#F05306"/>
</linearGradient>
</defs>
</svg>
